# xmcd
#
# Track frame offsets:
#	150
#	10847
#	21957
#	26900
#	36727
#	50545
#	61825
#	70010
#	85152
#	95927
#	112000
#	119222
#	133395
#	143407
#	156860
#	170840
#
# Disc length: 2479 seconds
# Revision: 0
# Processed by: cddbd v1.5.2PL0 Copyright (c) Steve Scherf et al.
# Submitted via: dBpowerAMP V12.0
#
DISCID=f109ad10
DTITLE=The Doc Watson Family - Songs From the Southern Mountains
DYEAR=1994
DGENRE=Folk
TTITLE0=Rye Cove
TTITLE1=Twilight Is Stealing
TTITLE2=Fisher's Hornpipe
TTITLE3=Anniversary Blue Yodel (Blue Yodel #7)
TTITLE4=A Tiny Broken Heart
TTITLE5=Honey Babe Blues
TTITLE6=Brown's Dream
TTITLE7=When the Roll Is Called up Yonder
TTITLE8=My Little Woman, You're So Sweet
TTITLE9=Will My Mother Know Me There
TTITLE10=Go Shoot Old Davey Dugger
TTITLE11=My Wandering Boy
TTITLE12=Somebody Touched Me
TTITLE13=Grandfather's Clock
TTITLE14=Lonely Tombs
TTITLE15=Just a Friend
EXTD=
EXTT0=
EXTT1=
EXTT2=
EXTT3=
EXTT4=
EXTT5=
EXTT6=
EXTT7=
EXTT8=
EXTT9=
EXTT10=
EXTT11=
EXTT12=
EXTT13=
EXTT14=
EXTT15=
PLAYORDER=
